<svg id="Layer_1" data-name="Layer 1" xmlns="http://www.w3.org/2000/svg" viewBox="0 0 1500 240"><defs><style>.cls-1{fill:#fff;}.cls-2{fill:#ff481d;}</style></defs><path class="cls-1" d="M489.26,114.79v80.05H453.48V116.37c0-19.61-10.08-30.22-25.46-30.22-15.62,0-26.76,10.61-26.76,30.22v78.47H365.73V116.37c0-19.61-10.33-30.22-25.44-30.22-15.64,0-26.78,10.61-26.78,30.22v78.47H278l1.27-109.92-3.71-10.26,23.39-17.35,14.57,17.45c7.42-11.67,20.14-20.42,39.5-20.42,16.95,0,31.81,7.17,40.29,23.06,8-12.72,23.07-23.06,45.6-23.06,29.16,0,50.36,18.29,50.36,60.45"/><path class="cls-1" d="M622.57,125.92c0-26-18.56-39.77-38.45-39.77s-38.44,14-38.44,39.77,18.56,39.76,38.44,39.76,38.45-13.78,38.45-39.76m-111.88,0c0-47.72,34.19-71.58,66.27-71.58,24.66,0,40.57,13.53,44,21.22h.78V57h35.53V194.84H621.76V176.29H621c-3.45,7.69-19.36,21.21-44,21.21-32.08,0-66.27-23.86-66.27-71.58"/><path class="cls-1" d="M819.32,113.72v81.12H783.8V119.56c0-20.15-10.87-33.4-29.44-33.4-18.28,0-29.42,13.25-29.42,33.4v75.28H689.42V57h35.52V75.81c7.69-12.19,21.47-21.47,42.14-21.47,28.37,0,52.24,17.5,52.24,59.38"/><path class="cls-1" d="M952.87,125.93c0-26-18.56-39.77-38.44-39.77S876,100.2,876,125.93s18.54,39.76,38.43,39.76,38.44-13.78,38.44-39.76M987.59,0V194.85H952.08V176.29h-.8c-3.44,7.7-19.36,21.2-44,21.2-32.08,0-66.29-23.86-66.29-71.56s34.21-71.59,66.29-71.59c24.64,0,40.56,13.52,44,21.21h.53V14.38Z"/><path class="cls-1" d="M1121.17,125.92c0-26-18.57-39.77-38.46-39.77s-38.42,14-38.42,39.77,18.55,39.76,38.42,39.76,38.46-13.78,38.46-39.76m-111.88,0c0-47.72,34.2-71.58,66.28-71.58,24.66,0,40.55,13.53,44,21.22h.8V57h35.53V194.84h-35.53V176.29h-.8c-3.45,7.69-19.34,21.21-44,21.21-32.08,0-66.28-23.86-66.28-71.58"/><path class="cls-1" d="M1277.28,55.4V89.34h0a51.87,51.87,0,0,0-9-.8c-26.77,0-43.47,18.56-43.47,46.14v60.17h-35.53V57h35.53v35.8c4.77-21.22,18.3-38.44,43.22-38.44a37.63,37.63,0,0,1,9.27,1"/><path class="cls-1" d="M1301.19,194.84h35.54V57h-35.54Zm0-148.51h35.54V14.4h-35.54Z"/><path class="cls-1" d="M1500,113.72v81.12h-35.53V119.56c0-20.15-10.88-33.4-29.42-33.4-18.3,0-29.43,13.25-29.43,33.4v75.28h-35.51V57h35.51V75.81c7.69-12.19,21.49-21.47,42.16-21.47,28.36,0,52.22,17.5,52.22,59.38"/><polygon class="cls-2" points="139.43 0 92.31 35.2 85.37 100.69 67.33 84.92 34.93 109.09 27.89 154.91 27.88 154.9 16.66 141.62 0 154.03 19.87 210 61.46 193.17 67.63 155.12 96.45 202.36 131.35 188.28 133.23 119.37 170.1 195.5 232.37 170.25 139.43 0"/></svg>